<?xml version="1.0" standalone="no"?>
<!DOCTYPE svg PUBLIC "-//W3C//DTD SVG 20010904//EN"
 "http://www.w3.org/TR/2001/REC-SVG-20010904/DTD/svg10.dtd">
<svg version="1.0" xmlns="http://www.w3.org/2000/svg"
 width="512.000000pt" height="512.000000pt" viewBox="0 0 512.000000 512.000000"
 preserveAspectRatio="xMidYMid meet">

<g transform="translate(0.000000,512.000000) scale(0.100000,-0.100000)"
fill="#000000" stroke="none">
<path d="M2341 5110 c-516 -50 -986 -239 -1381 -556 -109 -87 -297 -275 -384
-384 -492 -613 -674 -1420 -494 -2187 12 -51 24 -93 27 -93 4 0 16 35 29 78
13 42 46 131 74 197 325 777 1007 1342 1828 1514 167 36 326 51 520 51 421 0
790 -88 1163 -277 136 -69 350 -208 457 -296 l65 -54 151 226 151 226 -60 72
c-79 96 -261 272 -367 354 -270 211 -607 379 -917 459 l-43 11 -2 296 -3 297
-50 13 c-175 45 -562 72 -764 53z"/>
<path d="M475 1255 c-46 -66 -47 -66 -29 -93 36 -57 138 -192 145 -192 4 0 19
15 34 33 48 56 158 170 240 245 l79 72 -211 0 -211 0 -47 -65z"/>
<path d="M1715 1276 c-299 -106 -581 -269 -823 -477 l-82 -71 47 -42 c79 -70
115 -100 174 -145 l57 -42 108 71 c305 198 672 330 1064 381 123 17 477 16
605 0 378 -48 757 -185 1059 -381 l108 -71 57 42 c59 45 95 75 174 145 l47 42
-82 71 c-245 210 -536 378 -833 480 l-117 41 -722 -1 -721 0 -120 -43z"/>
<path d="M4255 1248 c82 -75 192 -189 240 -245 15 -18 30 -33 34 -33 6 0 133
170 155 207 4 8 -12 40 -39 78 l-47 65 -211 0 -211 0 79 -72z"/>
<path d="M2240 464 c-223 -29 -489 -102 -683 -187 l-78 -34 73 -33 c177 -79
452 -155 683 -187 149 -21 501 -21 650 0 231 32 506 108 683 187 l73 33 -78
34 c-200 88 -459 158 -691 187 -153 20 -484 20 -632 0z"/>
</g>
</svg>
